<?xml version="1.0" encoding="UTF-8"?>
<svg id="Layer_1" xmlns="http://www.w3.org/2000/svg" version="1.1" viewBox="0 0 160 160">
  <!-- Generator: Adobe Illustrator 30.3.0, SVG Export Plug-In . SVG Version: 2.1.3 Build 182)  -->
  <defs>
    <style>
      .st0 {
        fill: none;
        stroke: #4c673e;
      }

      .st0, .st1, .st2 {
        stroke-miterlimit: 10;
      }

      .st3 {
        fill: #4c673e;
      }

      .st4 {
        font-family: KristenITC-Regular, 'Kristen ITC';
      }

      .st5 {
        fill: #a85e17;
      }

      .st6 {
        font-size: 3.46px;
        letter-spacing: .07em;
      }

      .st1 {
        fill: #fff;
      }

      .st1, .st2 {
        stroke: #000;
        stroke-width: .25px;
      }

      .st2 {
        fill: #42210b;
      }

      .st7 {
        font-size: 6.06px;
        letter-spacing: .07em;
      }
    </style>
  </defs>
  <g>
    <line class="st0" x1="79.05" y1="96.76" x2="79.05" y2="58.85"/>
    <line class="st3" x1="79.05" y1="96.76" x2="79.05" y2="58.85"/>
  </g>
  <path class="st1" d="M110.76,33.71c-1-2.43-17.47,3.42-22.41,5.44s-8.14,5.64-7.14,8.07,5.81,2.77,10.75.74,19.8-11.82,18.8-14.25Z"/>
  <path class="st1" d="M115.55,49.14c0-2.63-17.46-3.46-22.8-3.46s-9.67,2.13-9.67,4.76,4.33,4.76,9.67,4.76,22.8-3.43,22.8-6.06Z"/>
  <path class="st1" d="M111.05,66.45c1.09-2.39-14.47-10.37-19.33-12.58s-9.68-2.06-10.77.34,1.97,6.13,6.83,8.33,22.18,6.3,23.27,3.91Z"/>
  <path class="st1" d="M102.17,78.19c1.94-1.77-9.2-15.24-12.8-19.19s-8.09-5.71-10.03-3.94-.6,6.41,2.99,10.35,17.89,14.54,19.84,12.77Z"/>
  <path class="st1" d="M97.9,19.07c-2.19-1.45-12.51,12.66-15.46,17.11s-3.55,9.24-1.36,10.69,6.36-.99,9.3-5.44c2.94-4.46,9.71-20.91,7.51-22.36Z"/>
  <path class="st1" d="M83.74,15.01c-2.56-.61-7.44,16.17-8.68,21.36s-.18,9.9,2.38,10.51,5.64-3.1,6.88-8.29c1.24-5.19,1.98-22.97-.58-23.58Z"/>
  <path class="st1" d="M61.32,19.02c-2.4,1.07,3.96,17.35,6.13,22.23s5.89,7.96,8.29,6.89,2.58-5.89.41-10.77c-2.18-4.88-12.43-19.42-14.83-18.35Z"/>
  <path class="st1" d="M48.98,31.99c-1.64,2.05,11.47,13.61,15.64,16.95s8.88,4.37,10.52,2.32c1.64-2.05-.41-6.42-4.58-9.76s-19.95-11.56-21.59-9.51Z"/>
  <path class="st1" d="M43.96,51.46c-.34,2.61,16.86,5.72,22.15,6.42s9.86-.85,10.21-3.46-3.67-5.29-8.96-5.99c-5.29-.7-23.05.42-23.4,3.02Z"/>
  <path class="st1" d="M50.9,70.97c1.15,2.36,17.21-4.53,22.01-6.87s7.76-6.15,6.61-8.52-5.98-2.39-10.78-.05c-4.8,2.34-18.99,13.07-17.84,15.43Z"/>
  <path class="st3" d="M95.12,80.49c-.64-1.44-9.81,2.08-12.56,3.29s-4.45,3.37-3.81,4.81,3.38,1.62,6.13.41,10.88-7.07,10.24-8.52Z"/>
  <text/>
  <path class="st3" d="M64.47,70.25c-1.03,1.19,6.07,7.99,8.34,9.95s4.95,2.59,5.98,1.39.03-3.75-2.24-5.71-11.04-6.82-12.07-5.63Z"/>
  <circle class="st2" cx="79.77" cy="50.44" r="5.81"/>
  <g>
    <polygon class="st5" points="58.43 142.05 58.43 108.23 54.57 108.23 54.57 96.39 103.91 96.39 103.91 108.23 100.04 108.23 100.04 142.05 58.43 142.05"/>
    <path d="M103.66,96.64v11.35h-3.86v33.81h-41.11v-33.81h-3.86v-11.35h48.84M104.16,96.14h-49.84v12.35h3.86v33.81h42.11v-33.81h3.86v-12.35h0Z"/>
  </g>
  <text class="st4" transform="translate(75.53 111.76) scale(.92 1)"><tspan class="st6"><tspan x="0" y="0">Den </tspan></tspan><tspan class="st7" x="-13.67" y="6.92">Grønne </tspan><tspan class="st6" x="13.78" y="6.92">Kop</tspan></text>
  <text/>
</svg>